PathFileType	4	(X/Y/Z)	C:\Github\FootballMatch-and-Movement-Analysis\output\test4 Exam_2026-03-06_143128_tvc1_Sports2D\test4 Exam_2026-03-06_143128_tvc1_Sports2D_px_person00.trc
DataRate	CameraRate	NumFrames	NumMarkers	Units	OrigDataRate	OrigDataStartFrame	OrigNumFrames
30.0	30.0	7	22	m	30.0	240	320
Frame#	Time	Hip			RHip			RKnee			RAnkle			RBigToe			RSmallToe			RHeel			LHip			LKnee			LAnkle			LBigToe			LSmallToe			LHeel			Neck			Head			Nose			RShoulder			RElbow			RWrist			LShoulder			LElbow			LWrist			
		X1	Y1	Z1	X2	Y2	Z2	X3	Y3	Z3	X4	Y4	Z4	X5	Y5	Z5	X6	Y6	Z6	X7	Y7	Z7	X8	Y8	Z8	X9	Y9	Z9	X10	Y10	Z10	X11	Y11	Z11	X12	Y12	Z12	X13	Y13	Z13	X14	Y14	Z14	X15	Y15	Z15	X16	Y16	Z16	X17	Y17	Z17	X18	Y18	Z18	X19	Y19	Z19	X20	Y20	Z20	X21	Y21	Z21	X22	Y22	Z22
240	8.025078369905955	405.1436620867189	646.9781381610865	0.0	387.6006858649187	662.0632372373367	0.0	374.71008277981696	831.6070760289465	0.0	422.059595569511	1002.5634603250952	0.0	346.2263224568969	1035.9130788764814	0.0	357.82544650658804	1029.0616767327742	0.0	451.29556946957075	1019.9323426369922	0.0	427.5290240007048	648.7687426097334	0.0	418.5481346584806	837.0211193926311	0.0	571.5612339196027	960.360364156797	0.0	539.2390304831315	1038.2454935656488	0.0	564.1680462540917	1030.3618075654508	0.0	602.625935294552	957.9756324479197	0.0	348.98746727807526	404.5181385686005	0.0	304.3503036624253	300.23150074000114	0.0	282.8788691629608	364.1212017369555	0.0	341.8698752522626	438.9785672738567	0.0	377.1321049649642	550.5589963110297	0.0	335.6552640575866	612.920362878546	0.0	374.4312999215641	407.28270450782554	0.0	403.5089840239553	428.437108761273	0.0	326.9889969478469	405.3540664140827	0.0
241	8.058516196447231	403.35971669300864	644.3138688097278	0.0	384.0639697748291	658.8741663874024	0.0	377.7185376429243	831.7498545193216	0.0	423.1727562311095	1001.9471977064818	0.0	352.9784138686902	1036.8509090580258	0.0	362.34176320641194	1029.8615760571497	0.0	451.14452787212707	1020.4582207525808	0.0	425.615212951731	645.9243735899157	0.0	414.65099333250174	833.6991700669585	0.0	567.5504371512836	952.7910576156046	0.0	538.0752526971452	1029.367748465388	0.0	563.3151123926325	1022.3264629908108	0.0	598.0712922451286	951.1652206517291	0.0	353.0624743765403	400.74557041880854	0.0	310.030663072001	294.5498414212565	0.0	286.7619926005432	357.97745578122215	0.0	346.394910623694	435.000299542323	0.0	379.2251585529982	547.9166268970724	0.0	341.1227958611264	614.9765938362699	0.0	378.59959849296615	404.05792775764724	0.0	403.66243548275406	424.67605537606914	0.0	330.1407192291248	403.29217167569163	0.0
242	8.091954022988505	402.1415441318729	642.1710389479081	0.0	380.66571645994514	654.6765011567567	0.0	378.80184429946877	831.3252707357898	0.0	423.81137425933855	1002.0107291884873	0.0	359.75076934943706	1037.0256764722735	0.0	367.4672175924694	1029.10800681441	0.0	450.37830851072533	1021.5377997800651	0.0	424.55347822088186	642.5763411255341	0.0	411.5300218958819	830.8396435334582	0.0	563.0067199405647	944.1891844214329	0.0	535.2375024295069	1020.3705118764567	0.0	561.4408483027747	1014.2833767148975	0.0	592.1581423910308	942.8535724315404	0.0	356.45623687962126	397.16724263434236	0.0	315.35080166837304	289.5546328955148	0.0	290.5242941409821	352.8519913880461	0.0	350.7519627073089	431.3574648427811	0.0	381.5802666601069	546.3722080298294	0.0	346.785804478931	615.9309806917692	0.0	382.7439290609795	401.50556457364144	0.0	403.9865398439839	423.6315343117652	0.0	332.00016342936806	405.83613340477825	0.0
243	8.12539184952978	400.4303247527971	640.7141841212182	0.0	377.6899110468623	650.5770716431414	0.0	378.47677072428337	830.8827242721707	0.0	423.79866252997186	1003.9542451520783	0.0	360.37668790886835	1036.4315786052957	0.0	368.5211239737082	1028.1630088495237	0.0	450.00723375412804	1022.588972007193	0.0	423.97259073834397	639.0980168736855	0.0	409.09241417555387	829.5952136872543	0.0	558.235643968588	934.4784452854216	0.0	531.1787167945756	1012.8451979908674	0.0	557.5214412564233	1006.6831035046343	0.0	585.7846932434772	931.6794740261506	0.0	359.20692262658326	394.0041042371898	0.0	321.4264131873093	286.69557387445656	0.0	295.07105852482965	348.63893355740737	0.0	353.4745498693553	427.65436826477605	0.0	383.99161106327426	543.9341870811845	0.0	348.6284657967668	614.4254806528354	0.0	385.7839364511326	399.52209653362155	0.0	406.5843576872012	426.92748477326336	0.0	332.1975044274236	412.5137542284662	0.0
244	8.158829676071054	398.32437588464404	640.2496034843242	0.0	375.81029862428665	648.3513763675954	0.0	376.67713666633637	830.1345511721692	0.0	423.85880118033486	1006.918698936955	0.0	358.4040755457083	1035.7875289871822	0.0	367.71940512463215	1027.9086404474908	0.0	451.1961900108408	1023.3121667107846	0.0	423.06188077884576	637.1209200574616	0.0	405.861502494382	829.7665273939306	0.0	553.4591259267172	923.9773182337486	0.0	528.3991499723504	1006.5009184396649	0.0	553.7627714096379	999.5599436864688	0.0	579.5805540483503	919.6120422463393	0.0	361.8043822494907	391.9411658012235	0.0	327.3089482571846	285.060758843519	0.0	299.7581636457665	345.52706843194295	0.0	355.8811311740813	424.01028778414263	0.0	385.86368863147754	540.3876363101485	0.0	348.1180717570111	611.9926501223558	0.0	387.1714818816863	398.5818324655342	0.0	410.7715822772709	432.40967225608557	0.0	331.1364193101731	421.1653824703522	0.0
245	8.19226750261233	396.70417359079437	640.4339503103854	0.0	375.17770605693136	648.3214993158455	0.0	373.8468375488321	828.7005275733802	0.0	424.6575853701545	1009.0692112028883	0.0	360.2115771721581	1035.1742903271945	0.0	369.2451162985254	1027.8387890103706	0.0	453.31695371377816	1023.7372133428125	0.0	421.04488942430476	637.2714484007477	0.0	401.0922836306215	830.1942513792212	0.0	548.867354840299	913.8018627111218	0.0	528.252810696903	1000.7018204747517	0.0	551.6933746339461	992.7883143324634	0.0	573.4563400667242	909.0154719558212	0.0	364.32674727206194	391.01928137242294	0.0	331.7349779494506	283.0857828457401	0.0	303.0267682824762	343.7838002444929	0.0	359.78442865239845	420.93289354641604	0.0	386.91451556486027	535.169622657112	0.0	348.59702654742586	611.3734451942506	0.0	387.4106364268896	398.5301101072772	0.0	413.8210172474544	436.77413774646635	0.0	330.8971950515994	429.66118980794874	0.0
246	8.225705329153604	396.2304840761286	640.5316058147644	0.0	375.72974950457495	649.1662442531908	0.0	371.82906343462616	827.5000385213982	0.0	425.7309722476164	1009.9211379318286	0.0	363.92214918383434	1033.2643892020303	0.0	371.954539447471	1026.4006818903654	0.0	454.0192651569836	1023.9244968669559	0.0	418.0245893488477	638.4903270260984	0.0	395.95396022635697	830.095960281232	0.0	544.554857888286	905.3256220501191	0.0	529.4766053905646	995.6746786893311	0.0	549.5072287343746	986.7407897491098	0.0	567.92118987053	899.7256248008104	0.0	365.9726133867004	390.58196183295513	0.0	335.348054167061	280.9851918833805	0.0	304.632317350246	343.1472743376958	0.0	364.14109134032924	418.9194090032502	0.0	387.30122286558105	529.0393981530478	0.0	350.1276710359751	612.6980817683476	0.0	387.3279243858014	398.78591216895853	0.0	415.01753563172923	439.7762131899019	0.0	333.6141075886921	438.1718760063624	0.0
